REM DIRINDEX 1\2\5,1\2\6,1\2\7,1\2\8,1\3\9,1\3\10,1\3\11,1\4\12,1\4\13,1\4\14,1\4\15,1\4\16
REM DIRNAME folder01,folder02,folder03,folder04,folder05,folder06,folder07,folder08,folder09,folder10,folder11,folder12,folder13,folder14,folder15,folder16
TITLE ""
FILE "1200_2_sec03_0729_0746.mp3" MP3
  TRACK 01 AUDIO
    TITLE "0:"
    INDEX 01 00:00:00
  TRACK 02 AUDIO
    TITLE "10:cjc034_01496"
    INDEX 01 00:00:15
  TRACK 03 AUDIO
    TITLE "0:"
    INDEX 01 00:01:03
  TRACK 04 AUDIO
    TITLE "9:cjc034_01497"
    INDEX 01 00:01:09
  TRACK 05 AUDIO
    TITLE "0:"
    INDEX 01 00:02:18
  TRACK 06 AUDIO
    TITLE "10:cjc034_01498"
    INDEX 01 00:03:04
  TRACK 07 AUDIO
    TITLE "0:"
    INDEX 01 00:04:13
  TRACK 08 AUDIO
    TITLE "9:cjc034_01499"
    INDEX 01 00:04:21
  TRACK 09 AUDIO
    TITLE "0:"
    INDEX 01 00:05:28
  TRACK 10 AUDIO
    TITLE "10:cjc034_01500"
    INDEX 01 00:06:14
  TRACK 11 AUDIO
    TITLE "0:"
    INDEX 01 00:08:73
  TRACK 12 AUDIO
    TITLE "9:cjc034_01501"
    INDEX 01 00:09:04
  TRACK 13 AUDIO
    TITLE "0:"
    INDEX 01 00:10:16
  TRACK 14 AUDIO
    TITLE "10:cjc034_01502"
    INDEX 01 00:10:74
  TRACK 15 AUDIO
    TITLE "0:"
    INDEX 01 00:14:07
  TRACK 16 AUDIO
    TITLE "9:cjc034_01503"
    INDEX 01 00:14:15
  TRACK 17 AUDIO
    TITLE "0:"
    INDEX 01 00:15:25
  TRACK 18 AUDIO
    TITLE "11:cjc034_01504"
    INDEX 01 00:16:73
  TRACK 19 AUDIO
    TITLE "0:"
    INDEX 01 00:21:49
  TRACK 20 AUDIO
    TITLE "10:cjc034_01505"
    INDEX 01 00:22:56
  TRACK 21 AUDIO
    TITLE "0:"
    INDEX 01 00:24:43
  TRACK 22 AUDIO
    TITLE "9:cjc034_01506"
    INDEX 01 00:24:57
  TRACK 23 AUDIO
    TITLE "0:"
    INDEX 01 00:25:58
  TRACK 24 AUDIO
    TITLE "10:cjc034_01507"
    INDEX 01 00:26:40
  TRACK 25 AUDIO
    TITLE "0:"
    INDEX 01 00:27:39
  TRACK 26 AUDIO
    TITLE "9:cjc034_01508"
    INDEX 01 00:27:49
  TRACK 27 AUDIO
    TITLE "0:"
    INDEX 01 00:28:51
  TRACK 28 AUDIO
    TITLE "10:cjc034_01509"
    INDEX 01 00:29:38
  TRACK 29 AUDIO
    TITLE "0:"
    INDEX 01 00:31:35
  TRACK 30 AUDIO
    TITLE "9:cjc034_01510"
    INDEX 01 00:31:45
  TRACK 31 AUDIO
    TITLE "0:"
    INDEX 01 00:32:50
  TRACK 32 AUDIO
    TITLE "10:cjc034_01511"
    INDEX 01 00:33:32
  TRACK 33 AUDIO
    TITLE "0:"
    INDEX 01 00:34:18
  TRACK 34 AUDIO
    TITLE "9:cjc034_01512"
    INDEX 01 00:34:24
  TRACK 35 AUDIO
    TITLE "0:"
    INDEX 01 00:35:27
  TRACK 36 AUDIO
    TITLE "10:cjc034_01513"
    INDEX 01 00:36:07
  TRACK 37 AUDIO
    TITLE "0:"
    INDEX 01 00:36:70
  TRACK 38 AUDIO
    TITLE "9:cjc034_01514"
    INDEX 01 00:36:72
  TRACK 39 AUDIO
    TITLE "0:"
    INDEX 01 00:38:04
  TRACK 40 AUDIO
    TITLE "10:cjc034_01515"
    INDEX 01 00:38:65
  TRACK 41 AUDIO
    TITLE "0:"
    INDEX 01 00:39:66
  TRACK 42 AUDIO
    TITLE "9:cjc034_01516"
    INDEX 01 00:39:72
  TRACK 43 AUDIO
    TITLE "0:"
    INDEX 01 00:41:06
  TRACK 44 AUDIO
    TITLE "10:cjc034_01517"
    INDEX 01 00:41:61
  TRACK 45 AUDIO
    TITLE "0:"
    INDEX 01 00:44:69
  TRACK 46 AUDIO
    TITLE "9:cjc034_01518"
    INDEX 01 00:44:71
  TRACK 47 AUDIO
    TITLE "0:"
    INDEX 01 00:46:13
  TRACK 48 AUDIO
    TITLE "10:cjc034_01519"
    INDEX 01 00:46:70
  TRACK 49 AUDIO
    TITLE "0:"
    INDEX 01 00:49:43
  TRACK 50 AUDIO
    TITLE "9:cjc034_01520"
    INDEX 01 00:49:51
  TRACK 51 AUDIO
    TITLE "0:"
    INDEX 01 00:50:72
  TRACK 52 AUDIO
    TITLE "11:cjc034_01521"
    INDEX 01 00:52:51
  TRACK 53 AUDIO
    TITLE "0:"
    INDEX 01 00:56:57
  TRACK 54 AUDIO
    TITLE "10:cjc034_01522"
    INDEX 01 00:57:64
  TRACK 55 AUDIO
    TITLE "0:"
    INDEX 01 00:58:71
  TRACK 56 AUDIO
    TITLE "9:cjc034_01523"
    INDEX 01 00:59:02
  TRACK 57 AUDIO
    TITLE "0:"
    INDEX 01 01:00:04
  TRACK 58 AUDIO
    TITLE "10:cjc034_01524"
    INDEX 01 01:00:62
  TRACK 59 AUDIO
    TITLE "0:"
    INDEX 01 01:02:03
  TRACK 60 AUDIO
    TITLE "9:cjc034_01525"
    INDEX 01 01:02:10
  TRACK 61 AUDIO
    TITLE "0:"
    INDEX 01 01:03:18
  TRACK 62 AUDIO
    TITLE "10:cjc034_01526"
    INDEX 01 01:04:03
  TRACK 63 AUDIO
    TITLE "0:"
    INDEX 01 01:05:07
  TRACK 64 AUDIO
    TITLE "9:cjc034_01527"
    INDEX 01 01:05:15
  TRACK 65 AUDIO
    TITLE "0:"
    INDEX 01 01:06:24
  TRACK 66 AUDIO
    TITLE "10:cjc034_01528"
    INDEX 01 01:07:12
  TRACK 67 AUDIO
    TITLE "0:"
    INDEX 01 01:08:25
  TRACK 68 AUDIO
    TITLE "9:cjc034_01529"
    INDEX 01 01:08:27
  TRACK 69 AUDIO
    TITLE "0:"
    INDEX 01 01:09:40
  TRACK 70 AUDIO
    TITLE "10:cjc034_01530"
    INDEX 01 01:10:24
  TRACK 71 AUDIO
    TITLE "0:"
    INDEX 01 01:11:43
  TRACK 72 AUDIO
    TITLE "9:cjc034_01531"
    INDEX 01 01:11:51
  TRACK 73 AUDIO
    TITLE "0:"
    INDEX 01 01:13:00
  TRACK 74 AUDIO
    TITLE "10:cjc034_01532"
    INDEX 01 01:13:59
  TRACK 75 AUDIO
    TITLE "0:"
    INDEX 01 01:15:03
  TRACK 76 AUDIO
    TITLE "9:cjc034_01533"
    INDEX 01 01:15:07
  TRACK 77 AUDIO
    TITLE "0:"
    INDEX 01 01:16:24
